<?xml version="1.0" standalone="no"?>
<!DOCTYPE svg PUBLIC "-//W3C//DTD SVG 20010904//EN"
 "http://www.w3.org/TR/2001/REC-SVG-20010904/DTD/svg10.dtd">
<svg version="1.0" xmlns="http://www.w3.org/2000/svg"
 width="260.000000pt" height="260.000000pt" viewBox="0 0 260.000000 260.000000"
 preserveAspectRatio="xMidYMid meet">
<metadata>
Created by potrace 1.11, written by Peter Selinger 2001-2013
</metadata>
<g transform="translate(0.000000,260.000000) scale(0.100000,-0.100000)"
fill="#000000" stroke="none">
<path d="M1583 2289 c-24 -4 -62 -17 -86 -27 -35 -15 -540 -303 -687 -391 -19
-11 -48 -28 -65 -37 -288 -160 -365 -228 -418 -372 -29 -78 -30 -234 -3 -312
37 -108 114 -203 211 -262 111 -67 829 -481 902 -519 125 -68 239 -85 358 -54
158 42 283 155 341 310 18 46 19 92 22 635 2 382 -1 606 -8 646 -45 262 -303
436 -567 383z m199 -237 c44 -18 107 -82 130 -131 20 -43 21 -62 21 -336 0
-253 -2 -294 -16 -322 -22 -41 -55 -63 -104 -70 -45 -5 -51 -2 -441 224 -293
170 -312 186 -312 259 0 54 32 99 95 134 28 15 133 75 235 134 102 59 207 113
234 120 49 13 108 8 158 -12z m-932 -487 c16 -52 54 -112 97 -152 29 -27 123
-85 293 -181 19 -11 118 -68 220 -127 102 -59 203 -114 224 -121 54 -19 143
-23 198 -9 34 8 48 9 50 1 9 -26 -1 -235 -12 -275 -16 -60 -99 -143 -160 -160
-25 -6 -58 -13 -75 -15 -36 -3 -110 20 -147 45 -14 11 -28 19 -30 19 -17 0
-880 507 -905 532 -47 46 -74 110 -74 177 -1 56 25 141 42 141 5 0 9 5 9 11 0
14 33 41 100 83 98 61 145 85 151 78 4 -4 12 -25 19 -47z"/>
</g>
</svg>
